Coordinates
version=1
nRows=10
nColumns=23
inDegrees=yes

Units are S.I. units (second, meters, Newtons, ...)
If the header above contains a line with 'inDegrees', this indicates whether rotational values are in degrees (yes) or radians (no).

endheader
time	pelvis_tilt	pelvis_list	pelvis_rotation	pelvis_tx	pelvis_ty	pelvis_tz	hip_flexion_r	hip_adduction_r	hip_rotation_r	knee_angle_r	knee_angle_r_beta	ankle_angle_r	subtalar_angle_r	mtp_angle_r	hip_flexion_l	hip_adduction_l	hip_rotation_l	knee_angle_l	knee_angle_l_beta	ankle_angle_l	subtalar_angle_l	mtp_angle_l
      7.50000000	    -11.13709252	      5.48757247	      0.81336994	      2.47407439	      0.93822736	      0.99286388	    -21.22351722	     -6.73727699	    -29.20608554	     35.41584866	      0.61812317	    -15.35587215	    -15.02474486	      0.00000000	     40.41085585	      4.96584927	    -13.05953807	     16.94851746	      0.29580743	     13.92679898	      7.66344174	      0.00000000
      7.50666667	    -10.88684408	      5.45736397	      1.07959252	      2.47354661	      0.93729568	      0.99173432	    -20.81043705	     -6.97445811	    -28.09636892	     39.48397482	      0.68912536	    -15.40110689	    -17.69508148	      0.00000000	     39.41855103	      5.55990099	    -12.86723028	     13.89153518	      0.24245303	     14.32552065	      7.93598135	      0.00000000
      7.51333333	    -10.42542379	      5.44460642	      1.46982291	      2.47278209	      0.93638616	      0.99081288	    -20.40999795	     -6.94337833	    -26.65244811	     43.63722247	      0.76161321	    -15.86579883	    -20.62572353	      0.00000000	     38.10512271	      6.33182163	    -11.51595617	     11.10842855	      0.19387865	     14.09936167	      6.17430213	      0.00000000
      7.52000000	     -9.94746848	      5.56462670	      1.84489110	      2.47190815	      0.93490929	      0.99004063	    -19.80934847	     -7.06952758	    -25.33897943	     48.13408357	      0.84009824	    -16.07195038	    -22.63139696	      0.00000000	     37.23418631	      6.85194387	    -11.66283985	      9.92811955	      0.17327837	     14.33046493	      6.01931927	      0.00000000
      7.52666667	     -9.29620278	      5.78653417	      2.27365145	      2.47081703	      0.93335656	      0.98951821	    -19.22486616	     -7.11027208	    -23.97640046	     52.68959017	      0.91960683	    -16.52406048	    -24.63853106	      0.00000000	     36.25656195	      7.43793397	    -11.54216044	      9.42731443	      0.16453768	     14.25917985	      5.25216778	      0.00000000
      7.53333333	     -8.50387718	      6.11864653	      2.78541321	      2.46966897	      0.93154082	      0.98901150	    -18.71151916	     -7.29682381	    -23.06483591	     57.34426177	      1.00084618	    -16.73613716	    -25.81098149	      0.00000000	     35.33966389	      8.00955535	    -11.79077897	      9.93730746	      0.17343873	     14.24770791	      4.69775561	      0.00000000
      7.54000000	     -7.63272608	      6.58312020	      3.30046441	      2.46849479	      0.92945646	      0.98865500	    -18.18343993	     -7.58879211	    -22.30425791	     62.02125350	      1.08247508	    -16.94368168	    -26.76579547	      0.00000000	     34.43497014	      8.58726611	    -12.17783282	     11.16752870	      0.19491015	     13.95029593	      4.21961802	      0.00000000
      7.54666667	     -6.73033724	      7.15516239	      3.83911133	      2.46730822	      0.92695103	      0.98840085	    -17.62102533	     -8.01433525	    -21.77157033	     66.70048210	      1.16414303	    -17.03664320	    -27.42818926	      0.00000000	     33.62322541	      9.12883164	    -12.80589417	     13.16725235	      0.22981191	     13.52302505	      3.97477031	      0.00000000
      7.55333333	     -5.93141295	      7.46547366	      4.40350846	      2.46608349	      0.92362483	      0.98814972	    -16.83618789	     -8.22367024	    -21.35801743	     71.34347993	      1.24517862	    -16.97022829	    -27.77601243	      0.00000000	     33.42381429	      8.93243490	    -15.03002014	     16.81252515	      0.29343392	     13.95137049	      6.69978357	      0.00000000
      7.56000000	     -4.74755105	      8.19587535	      5.01681564	      2.46495011	      0.92077022	      0.98794267	    -16.53127257	     -8.89129674	    -21.32151737	     75.81956580	      1.32330106	    -16.86207797	    -28.22403082	      0.00000000	     32.14899657	      9.56592402	    -15.09805951	     19.30133205	      0.33687179	     12.73697762	      6.18090151	      0.00000000
